# xmcd
#
# Track frame offsets: 
#        192
#        72310
#        100545
#        133860
#        164747
#
# Disc length: 2869 seconds
#
# Revision: 1
# Processed by: cddbd v1.4PL0 Copyright (c) Steve Scherf et al.
# Submitted via: ExactAudioCopy v0.90b4
#
DISCID=430b3305
DTITLE=Isaac Hayes - Joy
DYEAR=1973
DGENRE=Rhythmic Soul
TTITLE0=Joy
TTITLE1=I Love You That's All
TTITLE2=A Man Will Be A Man
TTITLE3=The Feeling Keeps On Coming
TTITLE4=I'm Gonna Make It (Without You)
EXTD=1973 Stax Records
EXTT0=
EXTT1=
EXTT2=
EXTT3=
EXTT4=
PLAYORDER=
